<?xml version="1.0" encoding="UTF-8"?>
<svg id="Layer_2" data-name="Layer 2" xmlns="http://www.w3.org/2000/svg" viewBox="0 0 674 290.7">
  <defs>
    <style>
      .cls-1 {
        fill: #fff;
      }

      .cls-2 {
        fill: none;
        stroke: #fff;
        stroke-width: 2px;
      }
    </style>
  </defs>
  <g id="Layer_1-2" data-name="Layer 1">
    <g>
      <path class="cls-1" d="M393.35,117.98c9.61-7.45,15.61-16.86,18-28.22.82-3.89,1.17-8.79,1.04-14.68-.03-1.35-.04-6.27-.03-14.78,0-.31-.26-.57-.57-.57h-44.43c-.34,0-.61.27-.61.61v7.49c0,.35.28.63.62.63h35.68c.52,0,.95.42.95.95,0,.01,0,.03,0,.04-.29,6,.25,11.66-.95,17.79-1.82,9.22-6.37,16.81-13.65,22.76-1.25,1.02-1.88,1.53-1.91,1.54-.69.19-1.43-.12-2.22-.91-11.34-11.34-26.88-26.73-46.63-46.16-.22-.21-.23-.56-.02-.77,0,0,0,0,0,0l46.75-46.75c.77-.77,1.98-.85,2.84-.19,7.96,6.05,12.78,13.71,14.46,22.97.12.66.69,1.14,1.36,1.14h6.95c.52,0,.94-.42.94-.94,0-.1-.02-.19-.05-.29-.85-2.63-1.71-5.6-2.57-8.93-.86-3.37-4.15-8.78-7.11-12.21-3.4-3.95-5.33-7-9.05-8.47-.33-.12-.49-.49-.37-.81.05-.13.14-.24.27-.32,3.56-2.12,5.62-5.62,8.94-8.42.11-.08.13-.24.05-.35-.05-.07-.13-.1-.21-.1h-9.92c-1.17,0-2.3.47-3.13,1.3l-57.22,57.22c-.76.76-1.78,1.18-2.85,1.18h-35.64c-.25,0-.46-.2-.46-.45,0,0,0,0,0,0,.14-5.69-.35-12.48.6-17.51,2.06-10.85,7.27-19.31,15.62-25.38,6.48-4.7,13.42-7.25,21.14-7.63,2.93-.15,13.95-.18,33.06-.1,4.59.02,6.8-3.5,10.37-7.28.11-.12.1-.31-.02-.42-.04-.04-.09-.06-.14-.07-2.75-.54-5.6-.82-8.55-.83-14.07-.07-25.48-.06-34.24.05-6.96.09-13.49,1.73-19.59,4.92-13.29,6.97-21.77,17.5-25.42,31.59-1.03,3.98-1.53,9.5-1.49,16.56.07,12.66.08,19.45.05,20.37-.25,7.05.26,13.02,1.53,17.92,5.63,21.62,25.08,36.55,47.61,36.32,13.45-.13,24.07-.15,31.87-.06,2.11.02,4.78-.18,8-.6.32-.04.55-.34.51-.66-.02-.13-.08-.25-.17-.34l-6.3-6.31c-.53-.53-1.26-.83-2.01-.82-19.41.09-31.1.05-35.09-.11-17.72-.73-32.01-13.48-36.22-30.26-1.53-6.08-1.04-11.96-1.12-19.42,0-.39.3-.7.69-.71,0,0,0,0,.01,0,6.65-.01,18-.02,34.07-.03,1.81,0,3.65.38,4.84,1.59,6.59,6.7,12.76,12.86,18.51,18.48,12.04,11.77,24.83,24.51,38.36,38.22.6.61,1.42.95,2.28.95h10.02c.23,0,.41-.18.41-.41,0-.11-.04-.21-.12-.29l-8.37-8.37c-.17-.17-.17-.44,0-.6.01-.01.03-.03.04-.04" vector-effect="non-scaling-stroke"/>
      <path class="cls-1" d="M583.18,171.91h-6.09c-.36,0-.66.3-.66.66h0c0,29.74-.01,44.73-.01,44.98-.08,3.76-1.29,7.12-3.62,10.08-1.79,2.26-3.85,4.55-6.32,5.74-11.59,5.56-26.46,2.79-30.4-10.86-.45-1.56-.65-6.2-.6-13.93.01-1.87,0-13.91-.05-36.11,0-.34-.27-.62-.61-.62h-10.13c-.28,0-.5.22-.5.5-.02,15.67-.02,30.34.01,44,.02,9.54,3.32,16.66,9.89,21.35,6.66,4.76,13.15,5.99,21.48,5.71,7.19-.25,13.14-2.22,17.85-5.93,3.28-2.58,4.72-3.66,6.68-7.02,2.47-4.25,3.71-8.71,3.73-13.4.04-11.01.03-25.85-.02-44.53,0-.34-.28-.62-.63-.62" vector-effect="non-scaling-stroke"/>
      <path class="cls-1" d="M61.16,241.82l-37.02-37.05c-.3-.3-.3-.78,0-1.07,0,0,.02-.02.03-.03l33.91-30.89c.15-.14.16-.37.02-.52-.07-.08-.18-.12-.28-.13h-8.76c-.73,0-1.43.27-1.97.76l-34.17,31.12c-.21.18-.52.16-.71-.05-.08-.09-.12-.2-.12-.31v-30.89c.01-.35-.28-.64-.63-.64H1.49c-.29,0-.53.25-.53.55l-.02,69.1c0,.32.25.57.56.58h9.96c.34,0,.61-.28.61-.62v-24.71c0-2.14.84-3.75,2.52-4.84.38-.24.87-.19,1.2.13l29.46,29.47c.37.38.89.6,1.42.6h14.25c.18,0,.33-.14.33-.33,0-.09-.03-.17-.09-.23" vector-effect="non-scaling-stroke"/>
      <path class="cls-1" d="M100.19,172.81c0-.41-.33-.74-.74-.74h-9.85c-.41,0-.74.33-.74.74v68.84c0,.41.33.74.74.74h51.51c.41,0,.74-.33.74-.74v-5.98c0-.41-.33-.74-.74-.74h-40.18c-.41,0-.74-.33-.74-.74v-61.38" vector-effect="non-scaling-stroke"/>
      <path class="cls-1" d="M218.47,210.67c.3,0,.54-.24.54-.54v-6.26c0-.3-.24-.54-.54-.54h-35.08c-.3,0-.54-.24-.54-.54h0v-22.93c0-.3.24-.54.54-.54h39.08c.3,0,.54-.24.54-.54h0v-6.15c0-.3-.24-.54-.54-.54h-50.24c-.3,0-.54.24-.54.54h0v69.23c0,.3.24.54.54.54h51.86c.3,0,.54-.24.54-.54h0v-6.41c0-.3-.24-.54-.54-.54h-40.71c-.3,0-.54-.24-.54-.54v-23.16c0-.3.24-.54.54-.54h35.09" vector-effect="non-scaling-stroke"/>
      <path class="cls-1" d="M285.25,172.11c-.25,0-.48.15-.59.38l-31.07,69.03c-.15.33,0,.71.32.86.09.04.18.06.28.06h6.26c.25,0,.48-.15.59-.38l24.41-54.24c.15-.33.53-.47.86-.32.14.06.25.18.32.31l25.17,54.24c.1.23.33.38.58.38h10.74c.36,0,.65-.29.65-.65,0-.09-.02-.18-.06-.27l-30.95-69.02c-.11-.23-.34-.38-.59-.38h-6.92" vector-effect="non-scaling-stroke"/>
      <path class="cls-1" d="M358.98,190.85c0-.43.35-.77.78-.76.24,0,.46.11.6.3,1.67,2.2,3.96,4.9,6.89,8.09,2.14,2.33,4.53,5.02,7.16,8.06,1.75,2.03,5.42,6.19,11,12.49,6.71,7.57,12.92,14.65,18.65,21.24,2.21,2.55,3.83,2.54,6.88,2.08.35-.05.61-.35.61-.7v-69.29c0-.13-.11-.24-.24-.24h-6.56c-.14,0-.26.12-.26.26h0v46.93c0,.35-.28.63-.63.63-.18,0-.35-.08-.47-.21l-41.67-46.96c-.38-.43-.93-.67-1.5-.67h-7.92c-.26,0-.47.21-.47.47v68.78c0,.59.47,1.07,1.06,1.07h5.11c.54,0,.98-.44.98-.98v-50.59" vector-effect="non-scaling-stroke"/>
      <path class="cls-1" d="M501.96,241.91l-37.13-37.14c-.3-.3-.3-.78,0-1.07,0,0,.02-.02.03-.03l33.99-30.98c.15-.14.16-.37.02-.52-.07-.08-.18-.12-.28-.13h-8.79c-.73,0-1.43.27-1.97.76l-34.25,31.22c-.2.19-.52.18-.71-.03-.09-.09-.13-.22-.13-.34v-30.97c0-.35-.29-.64-.64-.64h-9.98c-.3,0-.54.25-.54.55v69.29c0,.32.26.58.57.58h9.98c.34,0,.61-.28.61-.62v-24.78c0-2.15.84-3.76,2.52-4.85.38-.24.88-.19,1.21.13l29.54,29.54c.38.38.89.6,1.43.6h14.29c.19,0,.34-.16.34-.34,0-.09-.04-.17-.1-.23" vector-effect="non-scaling-stroke"/>
      <path class="cls-1" d="M643.48,242.39c3.16,0,4.93-.03,5.32-.07.22-.02.39-.2.39-.42v-61.9c0-.38.31-.68.69-.68h22.25c.52,0,.94-.42.94-.94h0v-5.39c0-.5-.4-.9-.9-.9h0c-9.49-.02-19.07-.03-28.76-.02-9.69.01-19.27.04-28.76.07-.5,0-.9.4-.9.9,0,0,0,0,0,.01v5.39c0,.52.43.94.95.94,0,0,0,0,.01,0l22.25-.05c.38,0,.69.3.69.68h0s.12,61.9.12,61.9c0,.23.17.41.39.43.39.03,2.16.05,5.32.05" vector-effect="non-scaling-stroke"/>
      <path class="cls-2" d="M147.1,281.83c0-.45-.37-.82-.82-.82H1.82c-.45,0-.82.37-.82.82h0v.18c0,.45.37.82.82.82h144.46c.45,0,.82-.37.82-.82h0v-.18" vector-effect="non-scaling-stroke"/>
      <path class="cls-2" d="M673,281.9c0-.49-.4-.89-.89-.89h-144.48c-.49,0-.89.4-.89.89h0v.04c0,.49.4.89.89.89h144.48c.49,0,.89-.4.89-.89h0v-.04" vector-effect="non-scaling-stroke"/>
      <g>
        <path class="cls-1" d="M175.73,280.34c1.84.87,2.43,2.79,1.78,5.76-.24,1.09-.93,1.91-2.08,2.45-2.66,1.26-5.14,1.04-7.45-.66-3.85-2.85-3.88-9.82-1.51-13.57,1.41-2.23,3.74-3.21,6.99-2.92.33.03.65.12.95.28l3.92,2.02c.25.12.55.03.67-.21.05-.1.07-.22.04-.34v-.08c-.06-.53-.36-1.01-.81-1.29-2.73-1.67-5.38-2.24-7.95-1.72-10.34,2.08-11,16.82-1.55,20.01,3.99,1.35,7.72.5,11.21-2.57.3-.26.47-.64.47-1.03v-5.97c0-.41-.3-.77-.71-.83-1.76-.27-3.06-.3-3.89-.09-.22.06-.35.28-.3.49.03.12.11.22.22.27" vector-effect="non-scaling-stroke"/>
        <path class="cls-1" d="M507.44,280.25c1.83.87,2.42,2.79,1.77,5.75-.24,1.09-.93,1.9-2.08,2.44-2.65,1.25-5.13,1.03-7.43-.67-3.84-2.85-3.86-9.81-1.48-13.54,1.41-2.23,3.74-3.19,6.97-2.9.33.03.65.12.95.28l3.91,2.02c.24.13.54.04.66-.2.06-.11.08-.24.05-.35v-.08c-.06-.53-.36-1.01-.81-1.29-2.73-1.67-5.37-2.24-7.93-1.73-10.32,2.06-11,16.77-1.58,19.96,3.98,1.36,7.71.51,11.19-2.54.3-.26.47-.64.47-1.03v-5.96c0-.41-.29-.76-.7-.82-1.75-.27-3.05-.31-3.88-.1-.22.06-.35.28-.3.49.03.12.11.22.22.27" vector-effect="non-scaling-stroke"/>
        <path class="cls-1" d="M362.71,276.65c.41.25.68.53.81.85,1.95,4.62,3.83,8.64,5.63,12.07.31.59,1.04.82,1.63.51.24-.13.44-.33.55-.58l6.05-13.43c.11-.25.4-.36.65-.25.11.05.19.13.24.24.21.46.29,1.05.23,1.76-.15,1.93-.18,5.79-.08,11.57,0,.55.45.99,1,.99h.67c.53,0,.96-.43.96-.96,0,0,0,0,0-.01-.06-5.44-.07-11.53-.02-18.26,0-.62-.54-1.13-1.2-1.12-.03,0-.06,0-.09,0-.82.07-1.43.49-1.83,1.28-2.65,5.19-4.81,10.07-6.48,14.62-.12.3-.46.45-.76.34-.15-.06-.28-.18-.34-.34-.95-2.62-2.17-5.18-3.67-7.68-.29-.49-.54-1.01-.74-1.56-.61-1.68-2.05-6.52-4.25-6.69-.56-.04-1.05.39-1.09.95,0,.02,0,.05,0,.07v18.45c0,.26.15.49.38.59l.36.16c.31.14.68,0,.82-.3.04-.08.06-.17.06-.26v-12.72c0-.19.15-.34.33-.34.06,0,.12.02.18.05" vector-effect="non-scaling-stroke"/>
        <path class="cls-1" d="M414.45,270.97c0-.44-.36-.79-.8-.78h-.8c-.44.01-.79.37-.78.8l.16,18.58c0,.44.36.79.8.78h.8c.44-.01.79-.37.78-.8l-.16-18.58" vector-effect="non-scaling-stroke"/>
        <path class="cls-1" d="M448.34,275.45l12.93,14.58c.32.35.86.38,1.21.07.18-.16.28-.39.29-.64v-18.74c0-.25-.21-.45-.46-.45h-.27c-.42,0-.76.34-.76.76v12.73c0,.24-.19.43-.43.43-.11,0-.22-.04-.3-.12-3.11-2.87-6.32-6.44-9.63-10.73-1-1.3-2.28-2.36-3.84-3.18-.42-.23-.95-.07-1.18.36-.07.13-.1.27-.1.41v18.68c0,.3.24.54.53.54h.35c.31,0,.56-.26.56-.57h0v-13.72c0-.35.29-.63.64-.62.18,0,.34.08.46.21" vector-effect="non-scaling-stroke"/>
        <path class="cls-1" d="M267.77,269.86c-5.74,0-10.39,4.65-10.39,10.39s4.65,10.39,10.39,10.39,10.39-4.65,10.39-10.39-4.65-10.39-10.39-10.39ZM267.77,289.42c-4.08.01-7.39-4.08-7.41-9.13h0c-.02-5.06,3.27-9.17,7.35-9.19,4.08-.01,7.39,4.08,7.41,9.13h0c.02,5.06-3.27,9.17-7.35,9.19Z"/>
        <path class="cls-1" d="M318.99,269.82c-5.66.12-10.15,4.89-10.03,10.65h0c.12,5.76,4.81,10.34,10.47,10.22,5.66-.12,10.15-4.89,10.03-10.65h0c-.12-5.76-4.81-10.34-10.47-10.22ZM326.76,280.33c-.04,5.03-3.44,9.07-7.58,9.03-4.14-.04-7.46-4.14-7.42-9.17h0c.04-5.03,3.44-9.07,7.58-9.03,4.14.04,7.46,4.14,7.42,9.17h0Z"/>
        <path class="cls-1" d="M227.43,289.66s-.02-.03-.02-.05l-4.75-8.23c-.13-.21-.05-.49.16-.62.02-.01.05-.02.07-.03,1.55-.59,3.35-1.63,3.79-3.41,2.16-8.62-9.77-7.21-14.82-7.03-.41.02-.73.35-.73.76v18.53c0,.43.34.77.76.77h1.07c.5,0,.9-.4.9-.9v-7.39c0-.53.43-.96.97-.96h3.57c.66,0,1.26.38,1.55.97,1.1,2.26,2.62,4.67,4.56,7.24.89,1.19,1.77,1.57,2.63,1.15.3-.14.44-.5.29-.8ZM219.84,279.56l-4.87-.02h0c-.63,0-1.14-.52-1.13-1.15l.02-5.64h0c0-.63.52-1.14,1.15-1.13l4.87.02s0,0,0,0c2.49.02,4.5,1.73,4.48,3.83v.32c-.02,2.1-2.04,3.78-4.53,3.77Z"/>
      </g>
    </g>
  </g>
</svg>