<?xml version="1.0" encoding="UTF-8"?>
<svg id="Layer_2" data-name="Layer 2" xmlns="http://www.w3.org/2000/svg" viewBox="0 0 723.12 108.79">
  <defs>
    <style>
      .cls-1 {
        fill: none;
        stroke: #fff;
        stroke-width: 2px;
      }
    </style>
  </defs>
  <g id="Layer_1-2" data-name="Layer 1">
    <g>
      <path class="cls-1" d="M76.44,107.05l-5.75-5.75c-.45-.45-1.06-.7-1.69-.7-6.33,0-14.23,0-23.7.04-4.89.02-8.41-.22-10.56-.72-14.1-3.31-23.84-13.85-26.16-28.08-.58-3.55-.23-10.12-.35-12.94-.01-.27.2-.5.47-.51,0,0,.01,0,.02,0l30.82-.06c.51,0,1,.21,1.36.57l48.08,48.08c.48.48,1.13.75,1.8.75h8.44c.23,0,.41-.19.41-.41,0-.11-.04-.21-.12-.28l-6.8-6.8c-.23-.23-.22-.61,0-.83.02-.02.03-.03.05-.05,10.89-8.25,16.19-19.37,15.9-33.36-.15-7.03-.19-11.9-.12-14.59,0-.24-.19-.44-.43-.45,0,0,0,0-.01,0h-37.18c-.31,0-.56.25-.56.55v6.35c0,.29.23.52.52.52h29.94c.31,0,.57.26.57.57,0,2.72,0,5.71.03,8.96.1,10.78-5.38,20.27-14.23,26.36-.18.12-.42.1-.57-.05l-39.15-39.15c-.32-.32-.32-.84,0-1.16,0,0,0,0,0,0L86.36,15.03c.39-.39,1.01-.45,1.47-.13,7.25,5.06,11.46,11.78,12.62,20.16.04.31.31.54.62.54h6.7c.28,0,.5-.22.5-.5,0-.03,0-.05,0-.07-1.61-10.48-6.74-18.97-15.41-25.47-.25-.19-.3-.56-.11-.81.02-.02.03-.04.05-.06l6.42-6.43c.27-.27.27-.71,0-.98-.13-.13-.31-.21-.49-.2h-7.09c-1.12,0-2.2.44-2.99,1.23l-48.49,48.49c-.12.12-.27.18-.44.18H8.6c-.22,0-.39-.17-.4-.39-.08-6.17-.35-12.37,1.38-17.99,3.35-10.83,11.52-19.23,22.06-22.8,3.4-1.15,8.67-1.64,15.82-1.48,2.95.07,9.88.1,20.79.1.97,0,1.9-.38,2.58-1.07l5.04-5.03c.28-.29.27-.74-.02-1.02-.13-.13-.3-.2-.48-.2-7.2-.07-17.12-.11-29.75-.1-9.88,0-16.8,1.04-24.49,5.78C7.66,15.09.5,28.42,1.11,44.11c.1,2.52.07,7.44-.08,14.77-.18,8.61.37,15.19,1.66,19.76,4.38,15.58,18.94,28.32,35.33,28.9,7.27.26,19.99.31,38.15.16.21,0,.38-.17.38-.38,0-.1-.04-.2-.11-.27" vector-effect="non-scaling-stroke"/>
      <path class="cls-1" d="M171.29,57.63v-25.51c0-.45-.36-.81-.81-.81h-7.33c-.42,0-.76.34-.76.76h0v57.39c0,.44.35.79.79.79h7.26c.45,0,.81-.37.81-.82v-21.52c0-.35.09-.7.27-1,.47-.8,1.02-1.4,1.66-1.8.44-.27,1.02-.21,1.38.16l24.24,24.24c.42.42,1,.66,1.59.66l10.98.09c.06,0,.12-.01.17-.04.09-.05.18-.13.27-.23.07-.09.07-.21,0-.29l-30.68-30.67c-.31-.32-.31-.83,0-1.14.01-.01.02-.02.03-.03l28.56-25.46c.27-.23.29-.64.06-.9-.12-.14-.3-.22-.49-.22h-6.59c-.81,0-1.59.3-2.19.83l-28.84,25.7c-.1.08-.24.07-.32-.02-.04-.04-.06-.1-.06-.16" vector-effect="non-scaling-stroke"/>
      <path class="cls-1" d="M344.55,37.56c.33,0,.6-.27.6-.6v-5.05c0-.33-.27-.6-.6-.6h-42.1c-.33,0-.6.27-.6.6h0v57.75c0,.33.27.6.6.6h42.88c.33,0,.6-.27.6-.6h0v-5.39c0-.33-.27-.6-.6-.6h-33.85c-.33,0-.6-.27-.6-.6h0v-18.77c0-.33.27-.6.6-.6h29.36c.33,0,.6-.27.6-.6h0v-5.06c0-.33-.27-.6-.6-.6h-29.34c-.33,0-.6-.27-.6-.6v-18.68c0-.33.27-.6.6-.6h33.05" vector-effect="non-scaling-stroke"/>
      <path class="cls-1" d="M568.97,31.32c-.76,0-1.49.28-2.06.78l-28.77,25.64c-.2.17-.5.15-.68-.04-.07-.09-.12-.19-.11-.31v-25.76c0-.18-.14-.33-.32-.33h-8.38c-.15,0-.28.13-.28.28v57.85c0,.44.35.79.79.79h7.33c.47,0,.85-.38.86-.85.07-11.89.09-18.69.05-20.38-.05-2.32.78-3.19,2.56-4.2.26-.14.58-.1.79.11l24.44,24.44c.54.54,1.27.84,2.03.84h11.31c.12,0,.22-.09.23-.21,0-.06-.02-.13-.07-.17l-31.18-31.17c-.16-.16-.16-.42,0-.58,0,0,.01-.01.02-.02l28.98-25.83c.21-.18.23-.5.06-.7-.1-.11-.24-.18-.39-.18h-7.21" vector-effect="non-scaling-stroke"/>
      <path class="cls-1" d="M598.48,31.39c-.26,0-.46.2-.47.46-.04,10.03-.05,21.18-.04,33.43.01,8.11,1.25,14.75,6.73,19.62,6.73,5.98,16.42,7.36,25,5.51,7.73-1.68,14.05-7.08,16.81-14.62.92-2.5,1.36-6.83,1.32-12.98-.05-7.51-.05-17.78-.02-30.82,0-.39-.31-.7-.7-.7h-5.21c-.38,0-.69.31-.69.69h0c-.05,20.12-.05,31.2.02,33.25.14,4.08-.31,7.12-1.34,9.11-3.91,7.54-11,11.36-19.11,10.15-5.94-.88-10.09-3.84-12.45-8.87-1.14-2.43-1.61-7.18-1.42-14.23.12-4.49.15-14.35.1-29.6,0-.22-.18-.4-.41-.4h-8.12" vector-effect="non-scaling-stroke"/>
      <path class="cls-1" d="M277.14,90.21c.34,0,.62-.28.62-.62v-5.31c0-.34-.28-.62-.62-.62h-33.8c-.34,0-.62-.28-.62-.62V31.97c0-.34-.28-.62-.62-.62h-7.53c-.34,0-.62.28-.62.62v57.62c0,.34.28.62.62.62h42.57" vector-effect="non-scaling-stroke"/>
      <path class="cls-1" d="M419.88,89.99c.07.14.21.23.36.23h8.8c.22,0,.4-.17.41-.39,0-.06-.01-.12-.04-.18l-26.82-58.11c-.07-.14-.21-.23-.37-.23h-5.68c-.16,0-.3.09-.37.23l-26.71,58.02c-.09.2,0,.44.19.53.05.02.11.04.17.04h5.96c.16,0,.3-.09.37-.23l21.11-45.86c.09-.2.32-.3.53-.21.09.04.16.11.2.2l21.89,45.96" vector-effect="non-scaling-stroke"/>
      <path class="cls-1" d="M459.85,46.49l38.16,42.82c.26.3.6.52.98.64,1.02.33,2.35.44,3.99.34.39-.03.7-.35.7-.75V31.64c0-.17-.13-.3-.3-.3h-5.76c-.17,0-.3.13-.3.3v39.5c0,.25-.2.45-.44.46-.13,0-.26-.06-.35-.16l-35.16-39.45c-.39-.43-.94-.68-1.52-.68h-6.39c-.36,0-.65.29-.65.64v57.62c0,.35.29.64.65.64h5.3c.39,0,.7-.31.7-.69v-42.88c0-.12.09-.22.21-.23.07,0,.14.03.18.08" vector-effect="non-scaling-stroke"/>
      <path class="cls-1" d="M697.31,90.24c2.07,0,3.35-.04,3.84-.11.35-.05.61-.36.61-.71v-51.47c0-.23.18-.41.41-.41h19.33c.34,0,.62-.28.62-.62v-4.96c0-.33-.27-.6-.6-.61-7.95-.08-16.05-.1-24.29-.07-8.23-.01-16.33.03-24.28.12-.34,0-.61.28-.6.62h0s.01,4.96.01,4.96c0,.34.28.62.62.62,0,0,0,0,.01,0l19.33-.05c.23,0,.41.18.41.41l.12,51.47c0,.35.26.65.61.7.49.07,1.77.11,3.85.11" vector-effect="non-scaling-stroke"/>
    </g>
  </g>
</svg>