<?xml version="1.0" encoding="UTF-8"?>
<svg id="Layer_2" xmlns="http://www.w3.org/2000/svg" version="1.1" viewBox="0 0 723.1 108.8">
  <!-- Generator: Adobe Illustrator 29.8.7, SVG Export Plug-In . SVG Version: 2.1.1 Build 1)  -->
  <defs>
    <style>
      .st0 {
        fill: #fff;
      }
    </style>
  </defs>
  <g id="Layer_1-2">
    <g>
      <path class="st0" d="M76.4,107.1l-5.8-5.8c-.4-.4-1.1-.7-1.7-.7-6.3,0-14.2,0-23.7,0-4.9,0-8.4-.2-10.6-.7-14.1-3.3-23.8-13.8-26.2-28.1-.6-3.6-.2-10.1-.4-12.9,0-.3.2-.5.5-.5h30.8c.5,0,1,.1,1.4.5l48.1,48.1c.5.5,1.1.8,1.8.8h8.4c.2,0,.4-.2.4-.4s0-.2-.1-.3l-6.8-6.8c-.2-.2-.2-.6,0-.8h0c10.9-8.3,16.2-19.4,15.9-33.4-.2-7-.2-11.9-.1-14.6,0-.2-.2-.4-.4-.5h-37.2c-.3,0-.6.2-.6.5v6.3c0,.3.2.5.5.5h29.9c.3,0,.6.3.6.6,0,2.7,0,5.7,0,9,0,10.8-5.4,20.3-14.2,26.4-.2.1-.4,0-.6,0l-39.2-39.2c-.3-.3-.3-.8,0-1.2h0L86.4,15c.4-.4,1-.4,1.5-.1,7.2,5.1,11.5,11.8,12.6,20.2,0,.3.3.5.6.5h6.7c.3,0,.5-.2.5-.5h0c-1.6-10.5-6.7-19-15.4-25.5-.2-.2-.3-.6-.1-.8,0,0,0,0,0,0l6.4-6.4c.3-.3.3-.7,0-1-.1-.1-.3-.2-.5-.2h-7.1c-1.1,0-2.2.4-3,1.2l-48.5,48.5c-.1.1-.3.2-.4.2H8.6c-.2,0-.4-.2-.4-.4,0-6.2-.3-12.4,1.4-18,3.3-10.8,11.5-19.2,22.1-22.8,3.4-1.1,8.7-1.6,15.8-1.5,3,0,9.9.1,20.8.1s1.9-.4,2.6-1.1l5-5c.3-.3.3-.7,0-1-.1-.1-.3-.2-.5-.2-7.2,0-17.1-.1-29.8-.1-9.9,0-16.8,1-24.5,5.8C7.7,15.1.5,28.4,1.1,44.1c.1,2.5,0,7.4,0,14.8-.2,8.6.4,15.2,1.7,19.8,4.4,15.6,18.9,28.3,35.3,28.9,7.3.3,20,.3,38.1.2.2,0,.4-.2.4-.4s0-.2-.1-.3" vector-effect="non-scaling-stroke"/>
      <path class="st0" d="M171.3,57.6v-25.5c0-.5-.4-.8-.8-.8h-7.3c-.4,0-.8.3-.8.8h0v57.4c0,.4.4.8.8.8h7.3c.4,0,.8-.4.8-.8v-21.5c0-.3,0-.7.3-1,.5-.8,1-1.4,1.7-1.8.4-.3,1-.2,1.4.2l24.2,24.2c.4.4,1,.7,1.6.7h11c0,0,.1,0,.2,0,0,0,.2-.1.3-.2,0,0,0-.2,0-.3l-30.7-30.7c-.3-.3-.3-.8,0-1.1,0,0,0,0,0,0l28.6-25.5c.3-.2.3-.6,0-.9-.1-.1-.3-.2-.5-.2h-6.6c-.8,0-1.6.3-2.2.8l-28.8,25.7c-.1,0-.2,0-.3,0,0,0,0,0,0-.2" vector-effect="non-scaling-stroke"/>
      <path class="st0" d="M344.5,37.6c.3,0,.6-.3.6-.6v-5c0-.3-.3-.6-.6-.6h-42.1c-.3,0-.6.3-.6.6h0v57.8c0,.3.3.6.6.6h42.9c.3,0,.6-.3.6-.6h0v-5.4c0-.3-.3-.6-.6-.6h-33.9c-.3,0-.6-.3-.6-.6h0v-18.8c0-.3.3-.6.6-.6h29.4c.3,0,.6-.3.6-.6h0v-5.1c0-.3-.3-.6-.6-.6h-29.3c-.3,0-.6-.3-.6-.6v-18.7c0-.3.3-.6.6-.6h33" vector-effect="non-scaling-stroke"/>
      <path class="st0" d="M569,31.3c-.8,0-1.5.3-2.1.8l-28.8,25.6c-.2.2-.5.2-.7,0,0,0-.1-.2-.1-.3v-25.8c0-.2-.1-.3-.3-.3h-8.4c-.2,0-.3.1-.3.3v57.8c0,.4.3.8.8.8h7.3c.5,0,.8-.4.9-.8,0-11.9,0-18.7,0-20.4,0-2.3.8-3.2,2.6-4.2.3-.1.6,0,.8.1l24.4,24.4c.5.5,1.3.8,2,.8h11.3c.1,0,.2,0,.2-.2,0,0,0-.1,0-.2l-31.2-31.2c-.2-.2-.2-.4,0-.6,0,0,0,0,0,0l29-25.8c.2-.2.2-.5,0-.7,0-.1-.2-.2-.4-.2h-7.2" vector-effect="non-scaling-stroke"/>
      <path class="st0" d="M598.5,31.4c-.3,0-.5.2-.5.5,0,10,0,21.2,0,33.4,0,8.1,1.2,14.8,6.7,19.6,6.7,6,16.4,7.4,25,5.5,7.7-1.7,14-7.1,16.8-14.6.9-2.5,1.4-6.8,1.3-13,0-7.5,0-17.8,0-30.8,0-.4-.3-.7-.7-.7h-5.2c-.4,0-.7.3-.7.7h0c0,20.1,0,31.2,0,33.3.1,4.1-.3,7.1-1.3,9.1-3.9,7.5-11,11.4-19.1,10.2-5.9-.9-10.1-3.8-12.5-8.9-1.1-2.4-1.6-7.2-1.4-14.2.1-4.5.2-14.4,0-29.6,0-.2-.2-.4-.4-.4h-8.1" vector-effect="non-scaling-stroke"/>
      <path class="st0" d="M277.1,90.2c.3,0,.6-.3.6-.6v-5.3c0-.3-.3-.6-.6-.6h-33.8c-.3,0-.6-.3-.6-.6V32c0-.3-.3-.6-.6-.6h-7.5c-.3,0-.6.3-.6.6v57.6c0,.3.3.6.6.6h42.6" vector-effect="non-scaling-stroke"/>
      <path class="st0" d="M419.9,90c0,.1.2.2.4.2h8.8c.2,0,.4-.2.4-.4,0,0,0-.1,0-.2l-26.8-58.1c0-.1-.2-.2-.4-.2h-5.7c-.2,0-.3,0-.4.2l-26.7,58c0,.2,0,.4.2.5,0,0,.1,0,.2,0h6c.2,0,.3,0,.4-.2l21.1-45.9c0-.2.3-.3.5-.2,0,0,.2.1.2.2l21.9,46" vector-effect="non-scaling-stroke"/>
      <path class="st0" d="M459.9,46.5l38.2,42.8c.3.3.6.5,1,.6,1,.3,2.4.4,4,.3.4,0,.7-.3.7-.8V31.6c0-.2-.1-.3-.3-.3h-5.8c-.2,0-.3.1-.3.3v39.5c0,.2-.2.4-.4.5-.1,0-.3,0-.4-.2l-35.2-39.5c-.4-.4-.9-.7-1.5-.7h-6.4c-.4,0-.6.3-.6.6v57.6c0,.3.3.6.6.6h5.3c.4,0,.7-.3.7-.7v-42.9c0-.1,0-.2.2-.2,0,0,.1,0,.2,0" vector-effect="non-scaling-stroke"/>
      <path class="st0" d="M697.3,90.2c2.1,0,3.3,0,3.8-.1.3,0,.6-.4.6-.7v-51.5c0-.2.2-.4.4-.4h19.3c.3,0,.6-.3.6-.6v-5c0-.3-.3-.6-.6-.6-8,0-16-.1-24.3,0-8.2,0-16.3,0-24.3.1-.3,0-.6.3-.6.6h0v5c0,.3.3.6.6.6h19.3c.2,0,.4.1.4.4v51.5c.1.3.4.7.7.7.5,0,1.8.1,3.8.1" vector-effect="non-scaling-stroke"/>
    </g>
  </g>
</svg>